<?xml version="1.0" standalone="no"?>
<!DOCTYPE svg PUBLIC "-//W3C//DTD SVG 20010904//EN"
 "http://www.w3.org/TR/2001/REC-SVG-20010904/DTD/svg10.dtd">
<svg version="1.0" xmlns="http://www.w3.org/2000/svg"
 width="464.000000pt" height="486.000000pt" viewBox="0 0 464.000000 486.000000"
 preserveAspectRatio="xMidYMid meet">

<g transform="translate(0.000000,486.000000) scale(0.100000,-0.100000)"
fill="#000000" stroke="none">
<path d="M2170 4694 c-300 -35 -437 -66 -646 -147 -276 -107 -527 -269 -743
-480 -134 -132 -221 -236 -314 -378 -174 -265 -288 -561 -339 -879 -29 -180
-31 -489 -4 -660 53 -337 162 -624 341 -897 96 -146 144 -205 278 -341 348
-353 762 -567 1247 -644 106 -17 179 -22 340 -22 161 0 234 5 340 22 487 77
904 293 1252 648 118 121 177 192 254 309 190 285 301 566 356 900 30 184 30
494 0 685 -61 389 -239 785 -482 1074 -78 93 -250 264 -330 328 -295 236 -670
401 -1045 459 -123 19 -424 33 -505 23z m452 -295 c549 -81 1034 -392 1340
-859 221 -338 332 -739 314 -1135 -9 -199 -31 -335 -83 -504 -171 -563 -594
-1022 -1148 -1245 -111 -45 -170 -48 -206 -10 l-24 26 -6 356 c-5 332 -7 362
-27 423 -12 36 -38 87 -58 113 -20 26 -34 49 -32 51 1 2 41 9 87 15 161 22
352 91 466 170 161 111 279 316 313 545 46 304 -1 527 -150 716 l-28 35 16 63
c22 90 16 260 -15 369 l-23 82 -52 0 c-98 0 -250 -57 -409 -154 l-75 -45 -53
15 c-105 28 -313 54 -439 54 -126 0 -335 -26 -438 -54 l-53 -14 -62 38 c-167
101 -323 160 -424 160 -57 0 -50 10 -84 -120 -24 -94 -26 -251 -4 -334 l16
-59 -29 -36 c-122 -154 -182 -358 -167 -566 17 -242 74 -414 186 -560 113
-149 357 -271 610 -305 46 -6 85 -13 87 -15 2 -2 -12 -25 -32 -52 -19 -27 -44
-80 -56 -118 -12 -39 -25 -76 -29 -84 -12 -23 -110 -52 -198 -58 -140 -10
-253 44 -338 161 -25 33 -59 81 -77 105 -81 110 -285 179 -338 115 -11 -12 -5
-21 35 -57 153 -135 181 -170 240 -292 87 -182 183 -262 355 -296 60 -12 250
-8 298 7 l22 6 0 -187 0 -187 -29 -29 c-41 -41 -92 -39 -206 7 -252 101 -437
220 -629 404 -315 301 -516 687 -582 1112 -22 139 -24 422 -6 563 8 55 30 161
49 235 182 689 717 1218 1413 1396 220 56 519 69 762 33z"/>
</g>
</svg>
