<?xml version="1.0" standalone="no"?>
<!DOCTYPE svg PUBLIC "-//W3C//DTD SVG 20010904//EN"
 "http://www.w3.org/TR/2001/REC-SVG-20010904/DTD/svg10.dtd">
<svg version="1.0" xmlns="http://www.w3.org/2000/svg"
 width="840.000000pt" height="859.000000pt" viewBox="0 0 840.000000 859.000000"
 preserveAspectRatio="xMidYMid meet">

<g transform="translate(0.000000,859.000000) scale(0.100000,-0.100000)"
fill="#000000" stroke="none">
<path d="M5545 7703 c-639 -78 -1168 -452 -1445 -1020 -122 -249 -180 -512
-180 -811 l0 -144 -67 7 c-286 29 -699 129 -1013 245 -700 257 -1370 722
-1840 1275 -119 141 -144 157 -231 153 -96 -5 -122 -29 -197 -175 -91 -180
-155 -380 -184 -573 -18 -123 -15 -413 6 -535 39 -236 122 -463 237 -654 22
-34 39 -65 39 -67 0 -3 -13 2 -30 11 -16 8 -55 15 -88 15 -74 0 -130 -33 -166
-101 -22 -40 -26 -60 -26 -131 0 -163 36 -368 95 -546 97 -291 294 -583 533
-793 l83 -73 -28 -14 c-64 -33 -112 -104 -113 -165 0 -43 45 -168 105 -294
193 -404 542 -729 963 -898 62 -25 119 -45 127 -45 39 0 4 -25 -127 -89 -148
-72 -187 -89 -349 -146 -407 -145 -891 -204 -1330 -164 -88 8 -127 8 -153 -1
-105 -34 -154 -152 -107 -255 24 -52 30 -57 199 -158 586 -352 1232 -569 1942
-653 185 -22 679 -30 895 -15 769 54 1476 268 2105 636 1405 822 2317 2392
2357 4057 l6 247 81 63 c44 35 158 140 252 233 172 172 294 316 406 479 52 76
62 98 66 142 6 74 -24 135 -85 171 -70 41 -116 37 -256 -21 -64 -27 -120 -47
-123 -44 -2 3 19 43 47 89 63 101 148 278 179 373 39 120 11 212 -81 258 -71
37 -108 27 -330 -85 -198 -101 -294 -142 -449 -193 -94 -31 -250 -74 -270 -74
-8 0 -46 27 -85 60 -253 217 -589 367 -928 415 -92 13 -362 18 -442 8z m516
-396 c267 -64 484 -182 701 -385 104 -97 132 -105 262 -78 108 23 301 78 406
115 46 16 87 27 90 24 11 -11 -221 -221 -312 -282 -114 -77 -143 -117 -141
-198 1 -83 54 -152 135 -173 43 -12 135 -3 306 31 57 11 106 19 108 16 10 -9
-120 -125 -325 -290 -44 -35 -78 -72 -87 -92 -11 -26 -14 -88 -14 -262 0 -308
-23 -566 -75 -843 -151 -802 -515 -1558 -1046 -2165 -104 -119 -332 -346 -444
-442 -630 -538 -1407 -882 -2240 -992 -263 -34 -446 -44 -742 -38 -374 7 -636
40 -978 123 -219 54 -638 193 -668 223 -4 4 20 11 55 15 559 63 1152 301 1624
651 125 93 149 127 148 211 0 62 -25 109 -80 147 -36 25 -52 29 -160 37 -397
30 -752 204 -999 489 -62 71 -165 216 -165 232 0 3 48 9 107 12 165 10 367 50
426 85 66 39 102 140 78 214 -6 19 -28 51 -49 71 -31 30 -55 41 -148 66 -247
67 -424 159 -605 314 -162 140 -307 344 -393 557 -23 57 -76 232 -76 252 0 4
21 0 48 -8 132 -42 288 -67 413 -68 117 -1 128 1 161 23 49 34 78 80 84 137 9
78 -21 124 -137 211 -239 181 -408 412 -508 695 -95 272 -102 588 -19 876 l21
72 151 -148 c83 -81 196 -186 251 -233 790 -679 1762 -1083 2792 -1161 151
-11 164 -11 203 7 51 23 86 63 102 116 10 34 9 59 -6 147 -51 305 -20 589 92
849 184 427 566 742 1021 843 130 28 132 28 336 25 161 -2 206 -7 296 -28z"/>
</g>
</svg>
